HIERARCHY
ROOT hip
{
	OFFSET 0.000000 0.000000 0.000000 
	CHANNELS 6 Xposition Yposition Zposition Xrotation Zrotation Yrotation
	JOINT abdomen
	{
		OFFSET 0.000000 3.402643 0.000000 
		CHANNELS 3 Xrotation Zrotation Yrotation
		JOINT chest
		{
			OFFSET 0.000000 8.438565 -0.680529 
			CHANNELS 3 Xrotation Zrotation Yrotation
			JOINT neck
			{
				OFFSET 0.000000 10.207942 -0.272212 
				CHANNELS 3 Xrotation Zrotation Yrotation
				JOINT head
				{
					OFFSET 0.000000 3.130431 0.000000 
					CHANNELS 3 Xrotation Zrotation Yrotation
					End Site
					{
						OFFSET 0.000000 3.130435 0.000000 
					}
				}
			}
			JOINT lCollar
			{
				OFFSET 3.470700 6.669187 -0.816635 
				CHANNELS 3 Yrotation Zrotation Xrotation
				JOINT lShldr
				{
					OFFSET 3.198488 0.000000 0.000000 
					CHANNELS 3 Zrotation Yrotation Xrotation
					JOINT lForeArm
					{
						OFFSET 10.139888 0.000000 0.000000 
						CHANNELS 3 Yrotation Zrotation Xrotation
						JOINT lHand
						{
							OFFSET 8.370511 0.000000 0.000000 
							CHANNELS 3 Zrotation Yrotation Xrotation
							End Site
							{
								OFFSET 4.083176 0.000000 0.000000 
							}
						}
					}
				}
			}
			JOINT rCollar
			{
				OFFSET -3.470700 6.669187 -0.816635 
				CHANNELS 3 Yrotation Zrotation Xrotation
				JOINT rShldr
				{
					OFFSET -3.198488 0.000000 0.000000 
					CHANNELS 3 Zrotation Yrotation Xrotation
					JOINT rForeArm
					{
						OFFSET -10.139888 0.000000 0.000000 
						CHANNELS 3 Yrotation Zrotation Xrotation
						JOINT rHand
						{
							OFFSET -8.370511 0.000000 0.000000 
							CHANNELS 3 Zrotation Yrotation Xrotation
							End Site
							{
								OFFSET -4.083176 0.000000 0.000000 
							}
						}
					}
				}
			}
		}
	}
	JOINT lThigh
	{
		OFFSET 5.308129 -1.633274 1.361059 
		CHANNELS 3 Xrotation Zrotation Yrotation
		JOINT lShin
		{
			OFFSET -2.041588 -20.007561 0.000000 
			CHANNELS 3 Xrotation Zrotation Yrotation
			JOINT lFoot
			{
				OFFSET 0.000000 -19.190928 -1.224953 
				CHANNELS 3 Xrotation Yrotation Zrotation
				End Site
				{
					OFFSET 0.000000 -2.449906 4.627600 
				}
			}
		}
	}
	JOINT rThigh
	{
		OFFSET -5.308129 -1.633274 1.361059 
		CHANNELS 3 Xrotation Zrotation Yrotation
		JOINT rShin
		{
			OFFSET 2.041588 -20.007561 0.000000 
			CHANNELS 3 Xrotation Zrotation Yrotation
			JOINT rFoot
			{
				OFFSET 0.000000 -19.190928 -1.224953 
				CHANNELS 3 Xrotation Yrotation Zrotation
				End Site
				{
					OFFSET 0.000000 -2.449906 4.627600 
				}
			}
		}
	}
}
MOTION
Frames: 6
Frame Time: 0.016667
-28.043541 46.301865 2.739619 -6.262165 -2.746008 10.529693 11.400679 14.684982 9.564638 0.000000 0.000000 0.000000 -3.968157 -4.843537 -0.539314 0.000000 0.000000 0.000000 0.000000 0.000000 0.000000 -65.390800 -21.092545 77.988884 -16.959887 14.039785 -9.487327 -7.542005 3.415984 -25.852495 0.000000 0.000000 0.000000 62.622391 15.420140 43.839161 17.286867 -18.487320 -6.943097 -4.104618 2.423457 -5.112255 -14.548684 10.721125 -1.394426 53.175510 7.698159 1.156956 2.114533 -5.323077 -14.816895 11.320585 4.781201 -4.509568 5.867209 0.321337 -0.322500 -8.366710 -0.125419 -5.847596 
-28.647898 46.535988 2.980503 -6.519636 -3.354737 10.173520 11.936175 16.344584 10.183222 0.000000 0.000000 0.000000 -4.233965 -4.580057 -0.176780 0.000000 0.000000 0.000000 0.000000 0.000000 0.000000 -68.209000 -15.179694 78.486343 -16.759869 13.495874 -8.340694 -6.759458 3.423464 -21.418522 0.000000 0.000000 0.000000 65.612442 8.498317 45.843910 14.624926 -14.806634 -6.151309 -3.228362 1.178255 -3.782089 -17.947769 9.432756 -3.993388 60.100677 8.176530 2.554815 7.089102 -5.672038 -14.197771 12.345946 6.938423 -3.742639 4.517965 0.496395 -0.012697 -8.657688 -0.432317 -7.512238 
-29.218920 46.653553 3.238023 -6.605550 -3.713405 9.913343 12.291940 17.220928 10.567551 0.000000 0.000000 0.000000 -4.680965 -4.228496 0.176023 0.000000 0.000000 0.000000 0.000000 0.000000 0.000000 -69.201981 -11.770153 77.237816 -17.161394 13.625468 -7.402006 -6.439877 3.341960 -20.202255 0.000000 0.000000 0.000000 66.955658 5.259408 47.215740 13.262152 -13.232094 -5.892094 -2.860077 0.616574 -3.139773 -21.315105 8.846522 -5.442000 64.772209 8.782866 2.903413 9.658000 -5.818780 -14.008827 12.874084 7.993111 -3.759935 3.902570 0.584109 0.070022 -8.920256 -0.133146 -8.153797 
-29.788832 46.769955 3.496172 -6.694695 -4.053309 9.652912 12.647278 18.095190 10.950838 0.000000 0.000000 0.000000 -5.113862 -3.876788 0.528118 0.000000 0.000000 0.000000 0.000000 0.000000 0.000000 -70.263466 -8.397079 75.942329 -17.577564 13.759350 -6.475117 -6.133068 3.267062 -18.989182 0.000000 0.000000 0.000000 68.210419 2.007535 48.502522 11.903416 -11.671781 -5.596771 -2.514627 0.055830 -2.514622 -24.654034 8.192371 -6.858418 69.415031 9.358627 3.283431 12.162614 -5.964631 -13.821037 13.405722 9.031257 -3.760346 3.271572 0.662712 0.131573 -9.190136 0.206190 -8.787224 
-30.231096 46.753162 3.826469 -6.424144 -3.971825 9.201417 12.646638 17.835735 10.945010 0.000000 0.000000 0.000000 -5.459348 -3.524899 0.958823 0.000000 0.000000 0.000000 0.000000 0.000000 0.000000 -70.256836 -6.361372 74.043571 -18.018118 13.924723 -5.404853 -6.050405 3.121143 -18.726536 0.000000 0.000000 0.000000 68.635948 0.901451 49.571953 11.224404 -10.997929 -5.414708 -2.334793 -0.029961 -2.412892 -27.426241 7.694498 -7.787756 69.114990 9.279966 2.775348 12.418427 -6.045531 -13.707960 13.776571 8.962708 -3.815497 3.285009 0.496380 0.296401 -9.695195 0.399062 -8.731071 
-30.670799 46.735542 4.158783 -6.154096 -3.880123 8.760353 12.644111 17.566689 10.936456 0.000000 0.000000 0.000000 -5.810089 -3.182647 1.398125 0.000000 0.000000 0.000000 0.000000 0.000000 0.000000 -70.310905 -4.336300 72.158554 -18.447678 14.089929 -4.348004 -5.971737 2.984807 -18.455709 0.000000 0.000000 0.000000 69.043365 -0.198836 50.634125 10.554769 -10.325642 -5.214350 -2.165396 -0.107400 -2.321832 -30.189137 7.167244 -8.711823 68.766396 9.182521 2.242804 12.635340 -6.076675 -13.605665 14.129456 8.875917 -3.867679 3.309270 0.330568 0.461670 -10.190678 0.572537 -8.638757 
